<svg xmlns="http://www.w3.org/2000/svg" viewBox="0 0 512 512" width="512" height="512" role="img" aria-label="Home Care+ maskable icon">
  <defs>
    <linearGradient id="bg" x1="56" y1="48" x2="456" y2="464" gradientUnits="userSpaceOnUse">
      <stop stop-color="#0b1220"/>
      <stop offset="1" stop-color="#0f766e"/>
    </linearGradient>
  </defs>
  <rect x="24" y="24" width="464" height="464" rx="112" fill="url(#bg)"/>
  <circle cx="256" cy="256" r="168" fill="#ffffff" opacity="0.08"/>
  <path d="M256 132 146 221h30v104a18 18 0 0 0 18 18h38v-54a24 24 0 0 1 24-24h36a24 24 0 0 1 24 24v54h38a18 18 0 0 0 18-18V221h30z" fill="#f8fafc"/>
  <path d="M256 196v120M196 256h120" stroke="#0f766e" stroke-width="34" stroke-linecap="round"/>
</svg>
