<svg xmlns="http://www.w3.org/2000/svg" viewBox="0 0 512 512" width="512" height="512" role="img" aria-label="Home Care+ icon">
  <defs>
    <linearGradient id="bg" x1="56" y1="48" x2="456" y2="464" gradientUnits="userSpaceOnUse">
      <stop stop-color="#0b1220"/>
      <stop offset="1" stop-color="#0f766e"/>
    </linearGradient>
    <linearGradient id="accent" x1="180" y1="176" x2="332" y2="336" gradientUnits="userSpaceOnUse">
      <stop stop-color="#f8fafc"/>
      <stop offset="1" stop-color="#dbeafe"/>
    </linearGradient>
  </defs>
  <rect x="24" y="24" width="464" height="464" rx="112" fill="url(#bg)"/>
  <path d="M256 122 128 226h36v124a18 18 0 0 0 18 18h52v-66a22 22 0 0 1 22-22h36a22 22 0 0 1 22 22v66h52a18 18 0 0 0 18-18V226h36z" fill="url(#accent)"/>
  <path d="M256 184v120M196 244h120" stroke="#0f766e" stroke-width="32" stroke-linecap="round"/>
  <circle cx="256" cy="356" r="34" fill="#dbeafe" opacity="0.88"/>
</svg>
