<svg xmlns="http://www.w3.org/2000/svg" viewBox="0 0 800 600" role="img" aria-labelledby="title desc">
  <title id="title">Emergency response illustration</title>
  <desc id="desc">An ambulance with urgent medical response symbols.</desc>
  <defs>
    <linearGradient id="bg" x1="0" y1="0" x2="1" y2="1">
      <stop offset="0%" stop-color="#ffe4e6"/>
      <stop offset="100%" stop-color="#fee2e2"/>
    </linearGradient>
  </defs>
  <rect width="800" height="600" rx="36" fill="url(#bg)"/>
  <circle cx="636" cy="124" r="70" fill="#fff1b8" opacity="0.9"/>
  <path d="M164 360h356c30 0 54 24 54 54v44H164z" fill="#ef4444"/>
  <path d="M190 330h220c42 0 74 20 96 60H190z" fill="#f87171"/>
  <rect x="236" y="292" width="86" height="92" rx="14" fill="#fff"/>
  <rect x="346" y="300" width="72" height="84" rx="14" fill="#fff"/>
  <path d="M248 318h62M248 342h62" stroke="#ef4444" stroke-width="10" stroke-linecap="round"/>
  <circle cx="248" cy="424" r="42" fill="#1f2937"/>
  <circle cx="248" cy="424" r="20" fill="#d1d5db"/>
  <circle cx="430" cy="424" r="42" fill="#1f2937"/>
  <circle cx="430" cy="424" r="20" fill="#d1d5db"/>
  <path d="M496 246h52l42 68h-94z" fill="#fee2e2" stroke="#ef4444" stroke-width="8"/>
  <circle cx="540" cy="360" r="54" fill="#ffffff" stroke="#dc2626" stroke-width="10"/>
  <path d="M540 328v64M508 360h64" stroke="#dc2626" stroke-width="14" stroke-linecap="round"/>
  <path d="M122 510h556" stroke="#dc2626" stroke-width="18" stroke-linecap="round" opacity="0.45"/>
</svg>
