<svg xmlns="http://www.w3.org/2000/svg" viewBox="0 0 800 600" role="img" aria-labelledby="title desc">
  <title id="title">Home care support illustration</title>
  <desc id="desc">A caregiver supporting a patient in a home setting.</desc>
  <defs>
    <linearGradient id="bg" x1="0" y1="0" x2="1" y2="1">
      <stop offset="0%" stop-color="#dff8f2"/>
      <stop offset="100%" stop-color="#b8e7ff"/>
    </linearGradient>
    <linearGradient id="roof" x1="0" y1="0" x2="1" y2="1">
      <stop offset="0%" stop-color="#0f766e"/>
      <stop offset="100%" stop-color="#14b8a6"/>
    </linearGradient>
  </defs>
  <rect width="800" height="600" rx="36" fill="url(#bg)"/>
  <circle cx="630" cy="120" r="72" fill="#fff7c7" opacity="0.9"/>
  <circle cx="145" cy="120" r="86" fill="#ffffff" opacity="0.5"/>
  <path d="M180 365 L400 220 L620 365 V500 H180Z" fill="#ffffff" opacity="0.9"/>
  <path d="M242 357 L400 250 L558 357V500H242Z" fill="#eefdf9"/>
  <path d="M154 370 L400 195 L646 370" fill="none" stroke="url(#roof)" stroke-width="20" stroke-linecap="round" stroke-linejoin="round"/>
  <rect x="365" y="360" width="70" height="140" rx="16" fill="#0f172a" opacity="0.85"/>
  <rect x="390" y="404" width="20" height="20" rx="4" fill="#dff8f2"/>
  <path d="M290 430c0-34 28-62 62-62s62 28 62 62-28 62-62 62-62-28-62-62z" fill="#f8fafc" stroke="#14b8a6" stroke-width="10"/>
  <path d="M350 408c-12 0-22 10-22 22 0 28 38 48 72 71 34-23 72-43 72-71 0-12-10-22-22-22-16 0-28 11-36 23-8-12-20-23-36-23-10 0-19 4-26 12-7-8-16-12-22-12z" fill="#fb7185"/>
  <circle cx="530" cy="402" r="60" fill="#ffffff" stroke="#0f766e" stroke-width="10"/>
  <path d="M530 364v76M492 402h76" stroke="#0f766e" stroke-width="14" stroke-linecap="round"/>
  <path d="M520 228c30 0 54 24 54 54 0 30-24 54-54 54s-54-24-54-54c0-30 24-54 54-54z" fill="#dff8f2" stroke="#0f766e" stroke-width="8"/>
  <path d="M508 275h24v-24h16v24h24v16h-24v24h-16v-24h-24z" fill="#0f766e"/>
  <path d="M188 500h424" stroke="#0f766e" stroke-width="18" stroke-linecap="round" opacity="0.55"/>
</svg>
