<svg xmlns="http://www.w3.org/2000/svg" viewBox="0 0 800 600" role="img" aria-labelledby="title desc">
  <title id="title">Hospital illustration</title>
  <desc id="desc">A modern hospital building with a medical cross and entrance.</desc>
  <defs>
    <linearGradient id="bg" x1="0" y1="0" x2="1" y2="1">
      <stop offset="0%" stop-color="#dbeafe"/>
      <stop offset="100%" stop-color="#e0f2fe"/>
    </linearGradient>
    <linearGradient id="tower" x1="0" y1="0" x2="1" y2="1">
      <stop offset="0%" stop-color="#2563eb"/>
      <stop offset="100%" stop-color="#0ea5e9"/>
    </linearGradient>
  </defs>
  <rect width="800" height="600" rx="36" fill="url(#bg)"/>
  <circle cx="640" cy="124" r="68" fill="#fff7c7" opacity="0.9"/>
  <rect x="178" y="198" width="444" height="292" rx="28" fill="#ffffff" stroke="#2563eb" stroke-width="10"/>
  <rect x="238" y="168" width="324" height="56" rx="18" fill="url(#tower)"/>
  <text x="400" y="206" text-anchor="middle" font-family="Arial, sans-serif" font-size="28" font-weight="700" fill="#ffffff">HOSPITAL</text>
  <rect x="244" y="268" width="96" height="70" rx="14" fill="#eff6ff"/>
  <rect x="360" y="268" width="80" height="70" rx="14" fill="#eff6ff"/>
  <rect x="460" y="268" width="96" height="70" rx="14" fill="#eff6ff"/>
  <rect x="278" y="364" width="244" height="126" rx="18" fill="#eff6ff"/>
  <rect x="368" y="384" width="64" height="106" rx="12" fill="#bfdbfe"/>
  <circle cx="400" cy="246" r="58" fill="#dcfce7" stroke="#16a34a" stroke-width="8"/>
  <path d="M400 212v68M366 246h68" stroke="#16a34a" stroke-width="14" stroke-linecap="round"/>
  <path d="M130 510h540" stroke="#1d4ed8" stroke-width="18" stroke-linecap="round" opacity="0.45"/>
</svg>
