<svg xmlns="http://www.w3.org/2000/svg" viewBox="0 0 180 180" width="180" height="180" role="img" aria-label="Home Care+ apple touch icon">
  <defs>
    <linearGradient id="bg" x1="18" y1="16" x2="162" y2="164" gradientUnits="userSpaceOnUse">
      <stop stop-color="#0b1220"/>
      <stop offset="1" stop-color="#0f766e"/>
    </linearGradient>
    <linearGradient id="accent" x1="68" y1="66" x2="112" y2="116" gradientUnits="userSpaceOnUse">
      <stop stop-color="#f8fafc"/>
      <stop offset="1" stop-color="#dbeafe"/>
    </linearGradient>
  </defs>
  <rect x="6" y="6" width="168" height="168" rx="42" fill="url(#bg)"/>
  <path d="M90 34 42 74h13v49a7 7 0 0 0 7 7h20v-26a7 7 0 0 1 7-7h14a7 7 0 0 1 7 7v26h20a7 7 0 0 0 7-7V74h13z" fill="url(#accent)"/>
  <path d="M90 65v50M65 90h50" stroke="#0f766e" stroke-width="15" stroke-linecap="round"/>
</svg>
